<?xml version="1.0" encoding="utf-8"?>
<svg version="1.0" width="500.000000pt" height="500.000000pt" viewBox="0 0 500.000000 500.000000" preserveAspectRatio="xMidYMid meet" xmlns="http://www.w3.org/2000/svg">
  <g transform="matrix(0.114992, 0, 0, -0.110909, -7.645755, 552.273499)" fill="#000000" stroke="none" style="">
    <path d="M510 2749 l0 -2050 893 4 c596 3 920 8 977 16 399 54 653 141 895 304 110 75 292 254 367 362 184 267 300 610 339 1010 15 155 15 556 0 710 -40 400 -155 744 -339 1010 -75 108 -257 287 -367 362 -271 183 -604 284 -1030 313 -82 5 -507 10 -942 10 l-793 0 0 -2051z m1775 1753 c226 -51 366 -122 490 -247 176 -176 284 -457 341 -885 19 -147 29 -890 14 -1080 -37 -455 -145 -800 -315 -998 -104 -123 -224 -201 -395 -256 -172 -56 -228 -61 -695 -61 l-420 0 -3 1765 c-1 971 0 1771 3 1778 4 11 84 13 448 9 401 -4 450 -6 532 -25z" style="fill: rgb(114, 92, 113); stroke: rgb(246, 247, 242); stroke-width: 17.7069px;"/>
    <path d="M1412 4183 l3 -98 233 -3 232 -2 0 -205 0 -205 -232 -2 -233 -3 -3 -97 -3 -98 486 0 485 0 0 100 0 100 -220 0 -220 0 0 205 0 205 220 0 220 0 0 100 0 100 -485 0 -486 0 3 -97z" style="stroke: rgb(246, 247, 242); fill: rgb(250, 248, 250); stroke-width: 0px;"/>
    <path d="M1410 3326 c0 -33 1 -34 78 -62 42 -15 104 -37 137 -49 l60 -22 0 -203 0 -203 -137 -50 -138 -50 0 -99 c0 -59 4 -98 10 -98 8 0 839 305 943 345 14 6 17 21 17 95 l0 88 -42 16 c-317 117 -904 326 -914 326 -9 0 -14 -12 -14 -34z m593 -246 c214 -78 235 -86 226 -94 -6 -5 -453 -166 -461 -166 -5 0 -8 77 -8 170 0 118 3 170 11 170 6 0 110 -36 232 -80z" style="stroke: rgb(246, 247, 242); fill: rgb(250, 248, 250); stroke-width: 0px;"/>
    <path d="M1410 2275 l0 -95 163 0 c89 -1 200 -1 247 -1 47 0 192 0 323 0 l237 1 0 95 0 95 -485 0 -485 0 0 -95z" style="stroke: rgb(246, 247, 242); fill: rgb(250, 248, 250); stroke-width: 0px;"/>
    <path d="M1412 1888 l3 -93 193 -3 192 -2 0 -68 c0 -37 -4 -72 -8 -78 -4 -6 -90 -58 -192 -116 l-185 -105 -3 -107 -3 -108 58 33 c32 18 120 68 196 111 75 43 141 78 145 78 5 0 19 -23 32 -51 61 -129 202 -187 349 -143 69 20 130 81 162 160 22 56 24 74 27 322 l3 262 -486 0 -486 0 3 -92z m906 -220 c-5 -151 -20 -191 -88 -226 -40 -21 -56 -23 -150 -20 -178 6 -210 42 -218 246 l-5 122 233 0 232 0 -4 -122z" style="stroke: rgb(246, 247, 242); fill: rgb(250, 248, 250); stroke-width: 0px;"/>
  </g>
</svg>